<svg width="32" height="32" viewBox="0 0 32 32" fill="none" xmlns="http://www.w3.org/2000/svg">
<g clip-path="url(#clip0_1_2)">
<path d="M24 0H8C3.58172 0 0 3.58172 0 8V24C0 28.4183 3.58172 32 8 32H24C28.4183 32 32 28.4183 32 24V8C32 3.58172 28.4183 0 24 0Z" fill="#0D7490"/>
<path d="M15.812 20.329C17.849 20.329 18.626 19.174 18.815 17.935H22.553C22.217 21.022 20.243 23.647 15.686 23.647C11.612 23.647 8.672 20.602 8.672 16.276C8.672 11.866 11.612 8.905 15.686 8.905C20.201 8.905 22.238 11.467 22.553 14.617H18.815C18.605 13.441 17.744 12.223 15.791 12.223C13.922 12.223 12.515 13.777 12.536 16.276C12.557 18.796 13.943 20.329 15.812 20.329Z" fill="white"/>
<path d="M5.14 11.02C6.44 11.02 7.28 11.86 7.3 13.08C7.3 14.28 6.44 15.16 5.14 15.16C3.86 15.16 3 14.28 3 13.08C3 11.86 3.86 11.02 5.14 11.02Z" fill="white" fill-opacity="0.4"/>
<path d="M19 20.9674C19 25.2 16.1594 27.9349 12.0338 28C7.97584 28 5 25.2 5 20.9674C5 16.8 7.97585 14 12.0338 14C16.1594 14 19 16.8 19 20.9674Z" fill="white" fill-opacity="0.2"/>
</g>
<defs>
<clipPath id="clip0_1_2">
<rect width="32" height="32" fill="white"/>
</clipPath>
</defs>
</svg>
